<svg width="274" height="81" viewBox="0 0 274 81" fill="none" xmlns="http://www.w3.org/2000/svg">
<rect width="274" height="81" fill="white"/>
<path d="M46.5624 27.7266C48.3579 27.7266 49.8134 26.2208 49.8134 24.3633C49.8134 22.5058 48.3579 21 46.5624 21C44.767 21 43.3115 22.5058 43.3115 24.3633C43.3115 26.2208 44.767 27.7266 46.5624 27.7266Z" fill="#090E82"/>
<path d="M73.9456 22.5044L57.4189 39.6072C56.5891 40.4659 55.3444 40.6806 54.2381 40.1796L46.9082 36.7448C46.8391 36.7448 46.7008 36.7448 46.6316 36.7448C46.4933 36.7448 46.4242 36.7448 46.2859 36.8163L38.9561 40.2512C37.9188 40.7521 36.605 40.5374 35.7752 39.6787L19.1794 22.5044C18.6954 21.9319 17.7273 22.5759 18.073 23.2915C19.456 26.798 27.8231 47.5503 28.9986 50.5558C29.8284 52.6311 32.4561 53.2035 33.9773 51.5577L40.6848 44.6164L46.2167 38.8916C46.4242 38.6769 46.8391 38.6769 47.0465 38.8916L52.5785 44.6164L59.2859 51.5577C60.8072 53.132 63.4349 52.6311 64.2647 50.5558C65.4402 47.6934 73.8073 26.7264 75.1903 23.2915C75.4669 22.5759 74.4988 21.9319 73.9456 22.5044Z" fill="#090E82"/>
<path d="M86.9283 51.6724L80.2429 31.5007H84.1331L90.0982 49.7417H88.1675L94.363 31.5007H97.821L103.844 49.7417H101.971L108.08 31.5007H111.653L104.968 51.6724H100.991L95.4869 35.2181H96.5243L90.9338 51.6724H86.9283ZM114.788 51.6724V36.2843H118.39V51.6724H114.788ZM116.603 33.7484C115.931 33.7484 115.374 33.5371 114.932 33.1145C114.509 32.6918 114.298 32.1827 114.298 31.5872C114.298 30.9724 114.509 30.4634 114.932 30.0599C115.374 29.6373 115.931 29.426 116.603 29.426C117.276 29.426 117.823 29.6277 118.246 30.0311C118.688 30.4153 118.909 30.9052 118.909 31.5007C118.909 32.1347 118.697 32.6726 118.275 33.1145C117.852 33.5371 117.295 33.7484 116.603 33.7484ZM128.161 51.8741C126.873 51.8741 125.634 51.7108 124.443 51.3842C123.271 51.0384 122.34 50.6254 121.648 50.1451L123.031 47.4075C123.723 47.8494 124.549 48.2144 125.509 48.5025C126.47 48.7907 127.431 48.9348 128.391 48.9348C129.525 48.9348 130.341 48.7811 130.841 48.4737C131.359 48.1663 131.619 47.7533 131.619 47.2346C131.619 46.812 131.446 46.495 131.1 46.2837C130.754 46.0531 130.303 45.8802 129.746 45.765C129.188 45.6497 128.564 45.544 127.872 45.448C127.2 45.3519 126.518 45.2271 125.826 45.0734C125.154 44.9005 124.539 44.6603 123.982 44.3529C123.425 44.0264 122.974 43.5941 122.628 43.0562C122.282 42.5183 122.109 41.8075 122.109 40.9238C122.109 39.944 122.388 39.0987 122.945 38.3879C123.502 37.6579 124.28 37.1008 125.279 36.7166C126.297 36.3131 127.498 36.1114 128.881 36.1114C129.918 36.1114 130.965 36.2267 132.022 36.4572C133.079 36.6877 133.953 37.0143 134.644 37.437L133.261 40.1745C132.531 39.7327 131.791 39.4349 131.042 39.2812C130.312 39.1083 129.582 39.0219 128.852 39.0219C127.757 39.0219 126.941 39.1852 126.403 39.5118C125.884 39.8383 125.625 40.2514 125.625 40.7509C125.625 41.2119 125.798 41.5577 126.143 41.7883C126.489 42.0188 126.941 42.2013 127.498 42.3358C128.055 42.4703 128.67 42.5855 129.342 42.6816C130.034 42.7584 130.716 42.8833 131.388 43.0562C132.06 43.2291 132.675 43.4692 133.232 43.7766C133.809 44.0648 134.27 44.4778 134.616 45.0157C134.961 45.5536 135.134 46.2548 135.134 47.1193C135.134 48.0799 134.846 48.9156 134.27 49.6264C133.713 50.3372 132.915 50.8943 131.878 51.2977C130.841 51.682 129.601 51.8741 128.161 51.8741ZM145.757 51.8741C144.048 51.8741 142.549 51.5379 141.262 50.8655C139.994 50.1739 139.005 49.2326 138.294 48.0415C137.602 46.8504 137.257 45.496 137.257 43.9783C137.257 42.4414 137.593 41.0871 138.265 39.9152C138.957 38.7241 139.898 37.7924 141.089 37.12C142.299 36.4476 143.673 36.1114 145.21 36.1114C146.708 36.1114 148.044 36.438 149.215 37.0912C150.387 37.7443 151.309 38.6665 151.982 39.8576C152.654 41.0486 152.99 42.4511 152.99 44.0648C152.99 44.2185 152.981 44.3914 152.962 44.5835C152.962 44.7756 152.952 44.9581 152.933 45.131H140.109V42.7392H151.031L149.619 43.4885C149.638 42.6047 149.456 41.8267 149.071 41.1543C148.687 40.4819 148.159 39.9536 147.486 39.5694C146.833 39.1852 146.074 38.9931 145.21 38.9931C144.326 38.9931 143.548 39.1852 142.876 39.5694C142.223 39.9536 141.704 40.4915 141.32 41.1831C140.955 41.8555 140.772 42.6528 140.772 43.5749V44.1512C140.772 45.0734 140.983 45.8898 141.406 46.6006C141.829 47.3115 142.424 47.859 143.193 48.2432C143.961 48.6274 144.845 48.8195 145.844 48.8195C146.708 48.8195 147.486 48.685 148.178 48.4161C148.87 48.1471 149.484 47.7245 150.022 47.1482L151.953 49.367C151.261 50.1739 150.387 50.7983 149.331 51.2401C148.293 51.6628 147.102 51.8741 145.757 51.8741ZM156.739 51.6724V36.2843H160.168V40.5203L159.764 39.2812C160.225 38.2438 160.946 37.4562 161.926 36.9183C162.925 36.3804 164.164 36.1114 165.643 36.1114V39.5406C165.489 39.5022 165.345 39.4829 165.211 39.4829C165.076 39.4637 164.942 39.4541 164.807 39.4541C163.443 39.4541 162.358 39.8576 161.551 40.6644C160.744 41.4521 160.341 42.6336 160.341 44.2089V51.6724H156.739ZM178.163 51.9605C176.626 51.9605 175.194 51.7108 173.869 51.2113C172.563 50.6926 171.419 49.9722 170.44 49.0501C169.479 48.1087 168.73 47.0041 168.192 45.7361C167.654 44.4682 167.385 43.085 167.385 41.5866C167.385 40.0881 167.654 38.7049 168.192 37.437C168.73 36.169 169.489 35.074 170.469 34.1519C171.448 33.2105 172.591 32.4901 173.898 31.9906C175.204 31.4719 176.635 31.2126 178.191 31.2126C179.844 31.2126 181.352 31.5007 182.716 32.0771C184.08 32.6342 185.232 33.4699 186.174 34.5841L183.753 36.8606C183.023 36.073 182.206 35.487 181.304 35.1028C180.401 34.6994 179.421 34.4977 178.364 34.4977C177.308 34.4977 176.338 34.6706 175.454 35.0164C174.589 35.3622 173.83 35.8521 173.177 36.486C172.543 37.12 172.044 37.8692 171.679 38.7337C171.333 39.5982 171.16 40.5492 171.16 41.5866C171.16 42.624 171.333 43.5749 171.679 44.4394C172.044 45.3039 172.543 46.0531 173.177 46.6871C173.83 47.3211 174.589 47.8109 175.454 48.1567C176.338 48.5025 177.308 48.6754 178.364 48.6754C179.421 48.6754 180.401 48.4833 181.304 48.0991C182.206 47.6957 183.023 47.0905 183.753 46.2837L186.174 48.589C185.232 49.684 184.08 50.5197 182.716 51.096C181.352 51.6724 179.834 51.9605 178.163 51.9605ZM196.03 51.8741C194.455 51.8741 193.053 51.5379 191.823 50.8655C190.594 50.1739 189.624 49.2326 188.913 48.0415C188.202 46.8504 187.847 45.496 187.847 43.9783C187.847 42.4414 188.202 41.0871 188.913 39.9152C189.624 38.7241 190.594 37.7924 191.823 37.12C193.053 36.4476 194.455 36.1114 196.03 36.1114C197.625 36.1114 199.037 36.4476 200.266 37.12C201.515 37.7924 202.485 38.7145 203.177 39.8864C203.888 41.0583 204.243 42.4222 204.243 43.9783C204.243 45.496 203.888 46.8504 203.177 48.0415C202.485 49.2326 201.515 50.1739 200.266 50.8655C199.037 51.5379 197.625 51.8741 196.03 51.8741ZM196.03 48.7907C196.914 48.7907 197.702 48.5986 198.393 48.2144C199.085 47.8302 199.623 47.273 200.007 46.543C200.411 45.813 200.612 44.9581 200.612 43.9783C200.612 42.9794 200.411 42.1245 200.007 41.4137C199.623 40.6836 199.085 40.1265 198.393 39.7423C197.702 39.3581 196.924 39.166 196.059 39.166C195.176 39.166 194.388 39.3581 193.696 39.7423C193.024 40.1265 192.486 40.6836 192.083 41.4137C191.679 42.1245 191.477 42.9794 191.477 43.9783C191.477 44.9581 191.679 45.813 192.083 46.543C192.486 47.273 193.024 47.8302 193.696 48.2144C194.388 48.5986 195.166 48.7907 196.03 48.7907ZM214.488 51.8741C213.182 51.8741 212.029 51.6339 211.03 51.1537C210.031 50.6542 209.253 49.9049 208.696 48.906C208.139 47.8878 207.861 46.6102 207.861 45.0734V36.2843H211.463V44.5835C211.463 45.9667 211.77 47.0041 212.385 47.6957C213.019 48.3681 213.912 48.7043 215.065 48.7043C215.91 48.7043 216.64 48.5314 217.255 48.1856C217.889 47.8398 218.379 47.3211 218.724 46.6295C219.089 45.9379 219.272 45.083 219.272 44.0648V36.2843H222.874V51.6724H219.445V47.5228L220.05 48.7907C219.531 49.7897 218.772 50.5581 217.773 51.096C216.774 51.6147 215.679 51.8741 214.488 51.8741ZM236.61 36.1114C237.839 36.1114 238.934 36.3515 239.895 36.8318C240.875 37.3121 241.643 38.0517 242.2 39.0507C242.757 40.0305 243.036 41.2984 243.036 42.8545V51.6724H239.434V43.3156C239.434 41.9516 239.107 40.9334 238.454 40.261C237.82 39.5886 236.927 39.2524 235.774 39.2524C234.929 39.2524 234.18 39.4253 233.526 39.7711C232.873 40.1169 232.364 40.6356 231.999 41.3272C231.653 41.9996 231.48 42.8545 231.48 43.8919V51.6724H227.878V36.2843H231.308V40.4339L230.702 39.166C231.24 38.1862 232.018 37.437 233.037 36.9183C234.074 36.3804 235.265 36.1114 236.61 36.1114ZM253.686 51.8741C251.995 51.8741 250.689 51.4418 249.767 50.5773C248.844 49.6936 248.383 48.3969 248.383 46.6871V32.8839H251.985V46.6006C251.985 47.3307 252.168 47.8974 252.533 48.3008C252.917 48.7043 253.446 48.906 254.118 48.906C254.925 48.906 255.597 48.6946 256.135 48.272L257.144 50.8367C256.721 51.1825 256.202 51.4418 255.588 51.6147C254.973 51.7876 254.339 51.8741 253.686 51.8741ZM245.848 39.2812V36.3996H256.106V39.2812H245.848Z" fill="#090E82"/>
</svg>
