<svg width="157" height="21" viewBox="0 0 157 21" fill="none" xmlns="http://www.w3.org/2000/svg">
<path d="M18.7514 4.4254C19.9216 4.4254 20.8703 3.44392 20.8703 2.23321C20.8703 1.02249 19.9216 0.0410156 18.7514 0.0410156C17.5811 0.0410156 16.6324 1.02249 16.6324 2.23321C16.6324 3.44392 17.5811 4.4254 18.7514 4.4254Z" fill="#090E82"/>
<path d="M36.5991 1.02243L25.8271 12.17C25.2863 12.7297 24.475 12.8696 23.7538 12.5431L18.9763 10.3043C18.9312 10.3043 18.8411 10.3043 18.796 10.3043C18.7059 10.3043 18.6608 10.3043 18.5707 10.3509L13.7931 12.5897C13.117 12.9162 12.2607 12.7763 11.7198 12.2166L0.902763 1.02243C0.587265 0.649288 -0.0437317 1.06907 0.181624 1.53549C1.08305 3.82097 6.53666 17.3473 7.30287 19.3062C7.84372 20.6589 9.55643 21.032 10.548 19.9592L14.9199 15.4349L18.5256 11.7035C18.6608 11.5636 18.9312 11.5636 19.0664 11.7035L22.6721 15.4349L27.044 19.9592C28.0356 20.9854 29.7483 20.6589 30.2892 19.3062C31.0554 17.4405 36.509 3.77433 37.4104 1.53549C37.5907 1.06907 36.9597 0.649288 36.5991 1.02243Z" fill="#090E82"/>
<path d="M45.0611 19.7832L40.7035 6.63543H43.2392L47.1272 18.5248H45.8687L49.907 6.63543H52.1609L56.0864 18.5248H54.8656L58.8475 6.63543H61.1765L56.819 19.7832H54.227L50.6395 9.05838H51.3157L47.6719 19.7832H45.0611ZM63.2198 19.7832V9.75333H65.5676V19.7832H63.2198ZM64.4031 8.10047C63.9649 8.10047 63.6017 7.96273 63.3137 7.68725C63.0383 7.41178 62.9005 7.07995 62.9005 6.69178C62.9005 6.29109 63.0383 5.95926 63.3137 5.6963C63.6017 5.42083 63.9649 5.28309 64.4031 5.28309C64.8414 5.28309 65.1983 5.41457 65.4737 5.67752C65.7617 5.92796 65.9057 6.24726 65.9057 6.63543C65.9057 7.04865 65.768 7.39925 65.4925 7.68725C65.217 7.96273 64.8539 8.10047 64.4031 8.10047ZM71.9361 19.9147C71.0971 19.9147 70.2895 19.8082 69.5132 19.5954C68.7493 19.37 68.142 19.1008 67.6912 18.7877L68.5928 17.0034C69.0436 17.2914 69.582 17.5293 70.2081 17.7171C70.8342 17.905 71.4603 17.9989 72.0864 17.9989C72.8251 17.9989 73.3573 17.8987 73.6829 17.6983C74.021 17.498 74.19 17.2288 74.19 16.8907C74.19 16.6152 74.0773 16.4086 73.8519 16.2709C73.6265 16.1206 73.3323 16.0079 72.9691 15.9328C72.606 15.8577 72.1991 15.7888 71.7483 15.7262C71.31 15.6636 70.8655 15.5822 70.4147 15.482C69.9765 15.3693 69.5758 15.2128 69.2126 15.0124C68.8495 14.7996 68.5552 14.5178 68.3299 14.1672C68.1045 13.8166 67.9918 13.3533 67.9918 12.7773C67.9918 12.1387 68.1733 11.5878 68.5365 11.1245C68.8996 10.6486 69.4067 10.2855 70.0578 10.0351C70.7215 9.77211 71.5041 9.64064 72.4057 9.64064C73.0818 9.64064 73.7643 9.71577 74.453 9.86603C75.1417 10.0163 75.7114 10.2292 76.1622 10.5046L75.2606 12.289C74.7848 12.001 74.3027 11.8069 73.8144 11.7067C73.3385 11.594 72.8627 11.5377 72.3869 11.5377C71.6731 11.5377 71.141 11.6441 70.7904 11.857C70.4523 12.0698 70.2832 12.3391 70.2832 12.6646C70.2832 12.9651 70.3959 13.1905 70.6213 13.3408C70.8467 13.4911 71.141 13.61 71.5041 13.6977C71.8672 13.7853 72.2679 13.8604 72.7062 13.9231C73.157 13.9731 73.6015 14.0545 74.0397 14.1672C74.478 14.2799 74.8787 14.4364 75.2418 14.6368C75.6175 14.8246 75.918 15.0938 76.1434 15.4444C76.3688 15.795 76.4815 16.2521 76.4815 16.8156C76.4815 17.4416 76.2936 17.9863 75.918 18.4496C75.5549 18.9129 75.0352 19.2761 74.359 19.539C73.6829 19.7895 72.8752 19.9147 71.9361 19.9147ZM83.4056 19.9147C82.2912 19.9147 81.3145 19.6956 80.4755 19.2573C79.6491 18.8065 79.0042 18.1929 78.5409 17.4166C78.0902 16.6403 77.8648 15.7575 77.8648 14.7683C77.8648 13.7665 78.0839 12.8838 78.5222 12.1199C78.9729 11.3436 79.5865 10.7363 80.3629 10.298C81.1517 9.85977 82.047 9.64064 83.0488 9.64064C84.0254 9.64064 84.8957 9.85351 85.6595 10.2792C86.4233 10.705 87.0244 11.306 87.4626 12.0824C87.9009 12.8587 88.12 13.7728 88.12 14.8246C88.12 14.9248 88.1138 15.0375 88.1013 15.1627C88.1013 15.2879 88.095 15.4069 88.0825 15.5196H79.7242V13.9606H86.8428L85.9225 14.449C85.935 13.873 85.816 13.3658 85.5656 12.9276C85.3152 12.4893 84.9708 12.145 84.5326 11.8945C84.1068 11.6441 83.6122 11.5189 83.0488 11.5189C82.4728 11.5189 81.9656 11.6441 81.5274 11.8945C81.1016 12.145 80.7635 12.4956 80.5131 12.9464C80.2752 13.3846 80.1562 13.9043 80.1562 14.5053V14.881C80.1562 15.482 80.294 16.0142 80.5695 16.4775C80.8449 16.9408 81.2331 17.2976 81.734 17.5481C82.2348 17.7985 82.8108 17.9237 83.462 17.9237C84.0254 17.9237 84.5326 17.8361 84.9834 17.6608C85.4341 17.4855 85.8348 17.21 86.1854 16.8343L87.4439 18.2806C86.9931 18.8065 86.4233 19.2135 85.7347 19.5015C85.0585 19.7769 84.2821 19.9147 83.4056 19.9147ZM90.5631 19.7832V9.75333H92.7982V12.5144L92.5353 11.7067C92.8358 11.0305 93.3053 10.5172 93.9439 10.1665C94.5951 9.81594 95.4027 9.64064 96.3669 9.64064V11.8758C96.2667 11.8507 96.1728 11.8382 96.0852 11.8382C95.9975 11.8257 95.9098 11.8194 95.8222 11.8194C94.9332 11.8194 94.2257 12.0824 93.6998 12.6083C93.1739 13.1217 92.9109 13.8917 92.9109 14.9185V19.7832H90.5631ZM104.527 19.971C103.525 19.971 102.593 19.8082 101.729 19.4827C100.877 19.1446 100.132 18.675 99.4934 18.074C98.8674 17.4604 98.379 16.7404 98.0284 15.914C97.6778 15.0876 97.5025 14.186 97.5025 13.2093C97.5025 12.2326 97.6778 11.3311 98.0284 10.5046C98.379 9.6782 98.8736 8.96447 99.5122 8.36342C100.151 7.74986 100.896 7.2803 101.747 6.95473C102.599 6.61665 103.532 6.44761 104.546 6.44761C105.623 6.44761 106.606 6.63543 107.495 7.01108C108.384 7.37421 109.135 7.9189 109.749 8.64516L108.171 10.129C107.695 9.61559 107.163 9.23368 106.574 8.98325C105.986 8.72029 105.347 8.58882 104.659 8.58882C103.97 8.58882 103.338 8.70151 102.762 8.9269C102.198 9.15229 101.704 9.47159 101.278 9.88481C100.865 10.298 100.539 10.7864 100.301 11.3498C100.076 11.9133 99.963 12.5331 99.963 13.2093C99.963 13.8855 100.076 14.5053 100.301 15.0688C100.539 15.6323 100.865 16.1206 101.278 16.5338C101.704 16.947 102.198 17.2663 102.762 17.4917C103.338 17.7171 103.97 17.8298 104.659 17.8298C105.347 17.8298 105.986 17.7046 106.574 17.4542C107.163 17.1912 107.695 16.7968 108.171 16.2709L109.749 17.7735C109.135 18.4872 108.384 19.0319 107.495 19.4076C106.606 19.7832 105.617 19.971 104.527 19.971ZM116.192 19.9147C115.165 19.9147 114.251 19.6956 113.449 19.2573C112.648 18.8065 112.016 18.1929 111.552 17.4166C111.089 16.6403 110.857 15.7575 110.857 14.7683C110.857 13.7665 111.089 12.8838 111.552 12.1199C112.016 11.3436 112.648 10.7363 113.449 10.298C114.251 9.85977 115.165 9.64064 116.192 9.64064C117.231 9.64064 118.151 9.85977 118.953 10.298C119.767 10.7363 120.399 11.3373 120.85 12.1011C121.313 12.865 121.545 13.754 121.545 14.7683C121.545 15.7575 121.313 16.6403 120.85 17.4166C120.399 18.1929 119.767 18.8065 118.953 19.2573C118.151 19.6956 117.231 19.9147 116.192 19.9147ZM116.192 17.905C116.768 17.905 117.281 17.7797 117.732 17.5293C118.183 17.2789 118.533 16.9157 118.784 16.4399C119.047 15.9641 119.178 15.4069 119.178 14.7683C119.178 14.1171 119.047 13.5599 118.784 13.0966C118.533 12.6208 118.183 12.2577 117.732 12.0072C117.281 11.7568 116.774 11.6316 116.21 11.6316C115.634 11.6316 115.121 11.7568 114.67 12.0072C114.232 12.2577 113.881 12.6208 113.618 13.0966C113.356 13.5599 113.224 14.1171 113.224 14.7683C113.224 15.4069 113.356 15.9641 113.618 16.4399C113.881 16.9157 114.232 17.2789 114.67 17.5293C115.121 17.7797 115.628 17.905 116.192 17.905ZM128.222 19.9147C127.371 19.9147 126.62 19.7582 125.969 19.4451C125.317 19.1196 124.81 18.6312 124.447 17.9801C124.084 17.3164 123.903 16.4837 123.903 15.482V9.75333H126.25V15.1627C126.25 16.0643 126.451 16.7404 126.851 17.1912C127.265 17.6295 127.847 17.8486 128.598 17.8486C129.149 17.8486 129.625 17.7359 130.026 17.5105C130.439 17.2851 130.758 16.947 130.984 16.4963C131.221 16.0455 131.34 15.4883 131.34 14.8246V9.75333H133.688V19.7832H131.453V17.0785L131.848 17.905C131.509 18.5561 131.015 19.0569 130.364 19.4076C129.713 19.7456 128.999 19.9147 128.222 19.9147ZM142.641 9.64064C143.443 9.64064 144.156 9.79716 144.782 10.1102C145.421 10.4232 145.922 10.9053 146.285 11.5565C146.648 12.1951 146.83 13.0215 146.83 14.0357V19.7832H144.482V14.3363C144.482 13.4472 144.269 12.7836 143.843 12.3453C143.43 11.9071 142.848 11.6879 142.096 11.6879C141.546 11.6879 141.057 11.8006 140.631 12.026C140.206 12.2514 139.874 12.5895 139.636 13.0403C139.411 13.4785 139.298 14.0357 139.298 14.7119V19.7832H136.95V9.75333H139.185V12.458L138.791 11.6316C139.141 10.993 139.648 10.5046 140.312 10.1665C140.988 9.81594 141.765 9.64064 142.641 9.64064ZM153.771 19.9147C152.669 19.9147 151.818 19.6329 151.217 19.0695C150.616 18.4935 150.315 17.6483 150.315 16.5338V7.53699H152.663V16.4775C152.663 16.9533 152.782 17.3227 153.02 17.5856C153.27 17.8486 153.615 17.9801 154.053 17.9801C154.579 17.9801 155.017 17.8423 155.368 17.5669L156.025 19.2385C155.75 19.4639 155.411 19.6329 155.011 19.7456C154.61 19.8583 154.197 19.9147 153.771 19.9147ZM148.662 11.7067V9.82846H155.349V11.7067H148.662Z" fill="#090E82"/>
</svg>
